<?xml version="1.0"?>
<!--Icons from directory ""-->
<svg xmlns="http://www.w3.org/2000/svg" width="51" height="128" viewBox="0 0 51 128"><svg viewBox="0 0 60 60" width="32" height="32" id="list" y="0"><path d="M38.914 0H6.5v60h47V14.586L38.914 0zm.586 3.414L50.086 14H39.5V3.414zM8.5 58V2h29v14h14v42h-43z"/><path d="M42.5 21h-16a1 1 0 1 0 0 2h16a1 1 0 1 0 0-2zM22.875 18.219l-4.301 3.441-1.367-1.367a.999.999 0 1 0-1.414 1.414l2 2a.998.998 0 0 0 1.331.074l5-4a1 1 0 0 0-1.249-1.562zM42.5 32h-16a1 1 0 1 0 0 2h16a1 1 0 1 0 0-2zM22.875 29.219l-4.301 3.441-1.367-1.367a.999.999 0 1 0-1.414 1.414l2 2a.998.998 0 0 0 1.331.074l5-4a1 1 0 0 0-1.249-1.562zM42.5 43h-16a1 1 0 1 0 0 2h16a1 1 0 1 0 0-2zM22.875 40.219l-4.301 3.441-1.367-1.367a.999.999 0 1 0-1.414 1.414l2 2a.998.998 0 0 0 1.331.074l5-4a1 1 0 0 0-1.249-1.562z"/></svg><svg version="1" width="51" height="64" viewBox="0 0 38 48" id="rent" y="32"><path d="M0 8v8h16V0H0v8zM18 3c0 .6 2.7 1 6 1s6 .4 6 1-2.7 1-6 1-6 .4-6 1c0 .5 1.8 1 4 1s4 .4 4 1c0 .5-1.8 1-4 1s-4 .4-4 1c0 .5 1.4 1 3 1 1.7 0 3 .4 3 1 0 .5-1.3 1-3 1-1.6 0-3 .4-3 1 0 .5.9 1 2 1 1.9 0 2 .7 2 15s.1 15 2 15c1.6 0 2-.7 2-3 0-2.8.2-3 4-3s4 .2 4 3c0 1.6.5 3 1 3 .6 0 1-8 1-22V2h-9c-5.3 0-9 .4-9 1z"/><path d="M2 19c0 .5 1.8 1 4 1s4 .4 4 1c0 .5-1.8 1-4 1s-4 .4-4 1c0 .5 1.4 1 3 1 1.7 0 3 .4 3 1 0 .5-1.3 1-3 1-1.6 0-3 .4-3 1 0 .5.9 1 2 1s2 .4 2 1c0 .5-.9 1-2 1-1.8 0-2 .7-2 8 0 4.7.4 8 1 8s1-1.4 1-3c0-2.8.2-3 4-3s4 .2 4 3 .2 3 4 3h4V18h-9c-5.3 0-9 .4-9 1z"/></svg><svg viewBox="0 0 55 55" width="32" height="32" id="user" y="96"><path d="M55 27.5C55 12.337 42.663 0 27.5 0S0 12.337 0 27.5c0 8.009 3.444 15.228 8.926 20.258l-.026.023.892.752c.058.049.121.089.179.137.474.393.965.766 1.465 1.127.162.117.324.234.489.348.534.368 1.082.717 1.642 1.048.122.072.245.142.368.212a27.44 27.44 0 0 0 1.88.98l.142.064a27.252 27.252 0 0 0 6.651 2.105l.184.033c.724.125 1.456.225 2.197.292.09.008.18.013.271.021.738.061 1.484.1 2.24.1.749 0 1.488-.039 2.222-.098l.279-.021a27.808 27.808 0 0 0 2.178-.287l.187-.034a27.251 27.251 0 0 0 6.557-2.055c.076-.035.153-.068.229-.104a27.639 27.639 0 0 0 2.25-1.189 27.514 27.514 0 0 0 1.581-1c.185-.126.366-.259.549-.391.439-.316.87-.642 1.289-.983.093-.075.193-.14.284-.217l.915-.764-.027-.023C51.523 42.802 55 35.55 55 27.5zm-53 0C2 13.439 13.439 2 27.5 2S53 13.439 53 27.5c0 7.577-3.325 14.389-8.589 19.063a7.494 7.494 0 0 0-.893-.537l-8.467-4.233a2.217 2.217 0 0 1-1.232-1.993v-2.957c.196-.242.403-.516.617-.817a20.378 20.378 0 0 0 2.616-5.123 3.63 3.63 0 0 0 2.085-3.289v-3.545c0-.867-.318-1.708-.887-2.369v-4.667c.052-.519.236-3.448-1.883-5.864C34.524 9.065 31.541 8 27.5 8s-7.024 1.065-8.867 3.168c-2.119 2.416-1.935 5.345-1.883 5.864v4.667a3.644 3.644 0 0 0-.887 2.369v3.545c0 1.101.494 2.128 1.34 2.821.81 3.173 2.477 5.575 3.093 6.389v2.894a2.23 2.23 0 0 1-1.162 1.958l-7.907 4.313a7.227 7.227 0 0 0-.752.476C5.276 41.792 2 35.022 2 27.5zm40.459 20.632c-.35.254-.706.5-1.067.735-.166.108-.331.216-.5.321-.472.292-.952.57-1.442.83-.108.057-.217.111-.326.167a25.481 25.481 0 0 1-3.488 1.476l-.127.043c-.627.208-1.262.393-1.904.552l-.006.001a25.59 25.59 0 0 1-1.964.402l-.054.01c-.621.101-1.247.174-1.875.229-.111.01-.222.017-.334.025-.621.047-1.245.077-1.872.077a25.43 25.43 0 0 1-1.895-.078c-.109-.008-.218-.015-.326-.025a25.862 25.862 0 0 1-1.89-.233l-.084-.015a25.405 25.405 0 0 1-3.89-.971l-.118-.04a25.86 25.86 0 0 1-1.862-.713l-.013-.006a26.094 26.094 0 0 1-1.705-.816c-.073-.038-.147-.074-.219-.113a25.7 25.7 0 0 1-1.939-1.155 25.417 25.417 0 0 1-1.338-.933l-.133-.104.096-.054 7.907-4.313a4.229 4.229 0 0 0 2.205-3.714l-.001-3.602-.23-.278c-.022-.025-2.184-2.655-3.001-6.216l-.091-.396-.341-.221a1.657 1.657 0 0 1-.769-1.392v-3.545c0-.465.197-.898.557-1.223l.33-.298v-5.57l-.009-.131c-.003-.024-.298-2.429 1.396-4.36C21.583 10.837 24.061 10 27.5 10c3.426 0 5.896.83 7.346 2.466 1.692 1.911 1.415 4.361 1.413 4.381l-.009 5.701.33.298c.359.324.557.758.557 1.223v3.545a1.67 1.67 0 0 1-1.181 1.575l-.497.153-.16.495a18.5 18.5 0 0 1-2.496 5.032c-.262.37-.517.698-.736.949l-.248.283V39.8c0 1.612.896 3.062 2.338 3.782l8.467 4.233.16.083c-.107.081-.217.156-.325.234z"/></svg></svg>
