<?xml version="1.0" encoding="iso-8859-1"?>
<!-- Generator: Adobe Illustrator 19.0.0, SVG Export Plug-In . SVG Version: 6.00 Build 0)  -->
<svg xmlns="http://www.w3.org/2000/svg" xmlns:xlink="http://www.w3.org/1999/xlink" version="1.1" id="Layer_1" x="0px" y="0px" viewBox="0 0 392.598 392.598" style="enable-background:new 0 0 392.598 392.598;" xml:space="preserve" width="512px" height="512px">
<g>
	<g>
		<path d="M70.594,41.18H51.911c-6.012,0-10.925,4.848-10.925,10.925S45.899,63.03,51.911,63.03h18.683    c6.012,0,10.925-4.848,10.925-10.925C81.519,46.093,76.671,41.18,70.594,41.18z" fill="#9999c7"/>
	</g>
</g>
<g>
	<g>
		<path d="M135.111,41.18h-18.683c-6.012,0-10.925,4.848-10.925,10.925c0.065,6.077,4.913,10.925,10.925,10.925h18.683    c6.012,0,10.925-4.848,10.925-10.925C146.036,46.093,141.188,41.18,135.111,41.18z" fill="#9999c7"/>
	</g>
</g>
<g>
	<g>
		<path d="M199.693,41.18H181.01c-6.012,0-10.925,4.848-10.925,10.925c0.065,6.077,4.913,10.925,10.925,10.925h18.683    c6.012,0,10.925-4.848,10.925-10.925C210.618,46.093,205.77,41.18,199.693,41.18z" fill="#9999c7"/>
	</g>
</g>
<g>
	<g>
		<path d="M70.594,92.251H51.911c-6.012,0-10.925,4.849-10.925,10.925c0,6.077,4.913,10.925,10.925,10.925h18.683    c6.012,0,10.925-4.849,10.925-10.925C81.519,97.164,76.671,92.251,70.594,92.251z" fill="#9999c7"/>
	</g>
</g>
<g>
	<g>
		<path d="M135.111,92.251h-18.683c-6.012,0-10.925,4.849-10.925,10.925c0,6.077,4.913,10.925,10.925,10.925h18.683    c6.012,0,10.925-4.849,10.925-10.925C146.036,97.164,141.188,92.251,135.111,92.251z" fill="#9999c7"/>
	</g>
</g>
<g>
	<g>
		<path d="M199.693,92.251H181.01c-6.012,0-10.925,4.849-10.925,10.925c0,6.077,4.913,10.925,10.925,10.925h18.683    c6.012,0,10.925-4.849,10.925-10.925C210.618,97.164,205.77,92.251,199.693,92.251z" fill="#9999c7"/>
	</g>
</g>
<g>
	<g>
		<path d="M70.594,143.321H51.911c-6.012,0-10.925,4.848-10.925,10.925c0,6.077,4.913,10.925,10.925,10.925h18.683    c6.012,0,10.925-4.849,10.925-10.925C81.519,148.234,76.671,143.321,70.594,143.321z" fill="#9999c7"/>
	</g>
</g>
<g>
	<g>
		<path d="M135.111,143.321h-18.683c-6.012,0-10.925,4.848-10.925,10.925c0.065,6.077,4.913,10.925,10.925,10.925h18.683    c6.012,0,10.925-4.849,10.925-10.925C146.036,148.234,141.188,143.321,135.111,143.321z" fill="#9999c7"/>
	</g>
</g>
<g>
	<g>
		<path d="M199.693,143.321H181.01c-6.012,0-10.925,4.848-10.925,10.925c0.065,6.077,4.913,10.925,10.925,10.925h18.683    c6.012,0,10.925-4.849,10.925-10.925C210.618,148.234,205.77,143.321,199.693,143.321z" fill="#9999c7"/>
	</g>
</g>
<g>
	<g>
		<path d="M70.594,194.327H51.911c-6.012,0-10.925,4.849-10.925,10.925c0,6.077,4.913,10.925,10.925,10.925h18.683    c6.012,0,10.925-4.849,10.925-10.925C81.519,199.24,76.671,194.327,70.594,194.327z" fill="#9999c7"/>
	</g>
</g>
<g>
	<g>
		<path d="M135.111,194.327h-18.683c-6.012,0-10.925,4.849-10.925,10.925c0.065,6.077,4.913,10.925,10.925,10.925h18.683    c6.012,0,10.925-4.849,10.925-10.925C146.036,199.24,141.188,194.327,135.111,194.327z" fill="#9999c7"/>
	</g>
</g>
<g>
	<g>
		<path d="M199.693,194.327H181.01c-6.012,0-10.925,4.849-10.925,10.925c0.065,6.077,4.913,10.925,10.925,10.925h18.683    c6.012,0,10.925-4.849,10.925-10.925C210.618,199.24,205.77,194.327,199.693,194.327z" fill="#9999c7"/>
	</g>
</g>
<g>
	<g>
		<path d="M70.594,245.463H51.911c-6.012,0-10.925,4.849-10.925,10.925c0,6.012,4.849,10.925,10.925,10.925h18.683    c6.012-0.065,10.925-4.913,10.925-10.925C81.519,250.376,76.671,245.463,70.594,245.463z" fill="#9999c7"/>
	</g>
</g>
<g>
	<g>
		<path d="M135.111,245.398h-18.683c-6.012,0-10.925,4.848-10.925,10.925c0,6.077,4.913,10.925,10.925,10.925h18.683    c6.012,0,10.925-4.849,10.925-10.925C146.036,250.311,141.188,245.398,135.111,245.398z" fill="#9999c7"/>
	</g>
</g>
<g>
	<g>
		<path d="M199.693,245.398H181.01c-6.012,0-10.925,4.848-10.925,10.925c0.065,6.077,4.913,10.925,10.925,10.925h18.683    c6.012,0,10.925-4.849,10.925-10.925C210.618,250.311,205.77,245.398,199.693,245.398z" fill="#9999c7"/>
	</g>
</g>
<g>
	<g>
		<path d="M381.737,124.962H251.604V10.925C251.604,4.913,246.756,0,240.679,0H10.925C4.913,0,0,4.848,0,10.925v370.747    c0,6.012,4.848,10.925,10.925,10.925h370.747c6.012,0,10.925-4.848,10.925-10.925V135.887    C392.598,129.875,387.749,124.962,381.737,124.962z M149.139,370.812h-46.675v-59.345h46.675V370.812z M229.689,370.812h-58.828    v-70.335c0-6.012-4.848-10.925-10.925-10.925H91.539c-6.012,0-10.925,4.849-10.925,10.925v70.335H21.786V21.851h0.065h207.838    V370.812z M370.812,370.812H251.604v-224h119.208V370.812z" fill="#9999c7"/>
	</g>
</g>
<g>
	<g>
		<path d="M340.493,168.921h-58.634c-6.012,0-10.925,4.849-10.925,10.925c0.065,6.077,4.913,10.925,10.925,10.925h58.634    c6.012,0,10.925-4.849,10.925-10.925C351.418,173.834,346.57,168.921,340.493,168.921z" fill="#9999c7"/>
	</g>
</g>
<g>
	<g>
		<path d="M340.493,221.543h-58.634c-6.012,0-10.925,4.849-10.925,10.925c0,6.077,4.913,10.925,10.925,10.925h58.634    c6.012,0,10.925-4.849,10.925-10.925C351.418,226.457,346.57,221.543,340.493,221.543z" fill="#9999c7"/>
	</g>
</g>
<g>
	<g>
		<path d="M340.493,274.166h-58.634c-6.012,0-10.925,4.849-10.925,10.925c0.065,5.948,4.913,10.925,10.925,10.925h58.634    c6.012,0,10.925-4.849,10.925-10.925C351.418,279.079,346.57,274.166,340.493,274.166z" fill="#9999c7"/>
	</g>
</g>
<g>
	<g>
		<path d="M340.493,326.723h-58.634c-6.012,0-10.925,4.848-10.925,10.925c0.065,6.012,4.913,10.925,10.925,10.925h58.634    c6.012,0,10.925-4.849,10.925-10.925C351.418,331.636,346.57,326.723,340.493,326.723z" fill="#9999c7"/>
	</g>
</g>
<g>
</g>
<g>
</g>
<g>
</g>
<g>
</g>
<g>
</g>
<g>
</g>
<g>
</g>
<g>
</g>
<g>
</g>
<g>
</g>
<g>
</g>
<g>
</g>
<g>
</g>
<g>
</g>
<g>
</g>
</svg>
